<svg xmlns="http://www.w3.org/2000/svg" width="14.014" height="14.011" viewBox="0 0 14.014 14.011">
  <path id="Icon_awesome-instagram" data-name="Icon awesome-instagram" d="M7,5.651A3.592,3.592,0,1,0,10.6,9.243,3.586,3.586,0,0,0,7,5.651Zm0,5.927A2.335,2.335,0,1,1,9.338,9.243,2.34,2.34,0,0,1,7,11.578ZM11.58,5.5a.838.838,0,1,1-.838-.838A.836.836,0,0,1,11.58,5.5Zm2.379.85a4.146,4.146,0,0,0-1.132-2.936A4.174,4.174,0,0,0,9.892,2.287c-1.157-.066-4.624-.066-5.781,0A4.168,4.168,0,0,0,1.176,3.416,4.16,4.16,0,0,0,.044,6.351c-.066,1.157-.066,4.624,0,5.781a4.146,4.146,0,0,0,1.132,2.936A4.179,4.179,0,0,0,4.111,16.2c1.157.066,4.624.066,5.781,0a4.146,4.146,0,0,0,2.936-1.132,4.174,4.174,0,0,0,1.132-2.936c.066-1.157.066-4.621,0-5.777Zm-1.494,7.019A2.364,2.364,0,0,1,11.133,14.7,15.441,15.441,0,0,1,7,14.986a15.561,15.561,0,0,1-4.13-.281,2.364,2.364,0,0,1-1.332-1.332,15.441,15.441,0,0,1-.281-4.13,15.561,15.561,0,0,1,.281-4.13A2.364,2.364,0,0,1,2.873,3.781,15.441,15.441,0,0,1,7,3.5a15.561,15.561,0,0,1,4.13.281,2.364,2.364,0,0,1,1.332,1.332,15.441,15.441,0,0,1,.281,4.13A15.432,15.432,0,0,1,12.465,13.373Z" transform="translate(0.005 -2.238)"/>
</svg>
