<svg xmlns="http://www.w3.org/2000/svg" width="13.25" height="13.25" viewBox="0 0 13.25 13.25">
  <path id="Icon_awesome-linkedin-in" data-name="Icon awesome-linkedin-in" d="M2.966,13.25H.219V4.4H2.966ZM1.591,3.2A1.6,1.6,0,1,1,3.182,1.592,1.6,1.6,0,0,1,1.591,3.2ZM13.247,13.25H10.506V8.944c0-1.026-.021-2.342-1.428-2.342C7.649,6.6,7.431,7.717,7.431,8.87v4.38H4.687V4.4H7.321V5.611H7.36a2.886,2.886,0,0,1,2.6-1.429c2.78,0,3.291,1.831,3.291,4.209V13.25Z" transform="translate(0 -0.001)" fill="#040415"/>
</svg>
